<svg xmlns="http://www.w3.org/2000/svg" viewBox="0 0 128 128">
  <!-- Shield body -->
  <path d="M64 8 L112 28 L112 60 Q112 96 64 120 Q16 96 16 60 L16 28 Z"
        fill="#1a1a2e" stroke="#e94560" stroke-width="3"/>
  <!-- Inner shield highlight -->
  <path d="M64 18 L102 34 L102 58 Q102 88 64 110 Q26 88 26 58 L26 34 Z"
        fill="#16213e" stroke="none"/>
  <!-- Lock body -->
  <rect x="46" y="58" width="36" height="28" rx="4" fill="#e94560"/>
  <!-- Lock shackle -->
  <path d="M50 58 L50 46 Q50 34 64 34 Q78 34 78 46 L78 58"
        fill="none" stroke="#e94560" stroke-width="5" stroke-linecap="round"/>
  <!-- Keyhole -->
  <circle cx="64" cy="69" r="5" fill="#1a1a2e"/>
  <rect x="62" y="72" width="4" height="8" rx="1" fill="#1a1a2e"/>
  <!-- 13 gate dots (cascade) -->
  <g fill="#0f3460" opacity="0.7">
    <circle cx="34" cy="44" r="2.5"/>
    <circle cx="38" cy="50" r="2.5"/>
    <circle cx="34" cy="56" r="2.5"/>
    <circle cx="30" cy="62" r="2.5"/>
    <circle cx="30" cy="70" r="2.5"/>
    <circle cx="34" cy="78" r="2.5"/>
    <circle cx="94" cy="44" r="2.5"/>
    <circle cx="90" cy="50" r="2.5"/>
    <circle cx="94" cy="56" r="2.5"/>
    <circle cx="98" cy="62" r="2.5"/>
    <circle cx="98" cy="70" r="2.5"/>
    <circle cx="94" cy="78" r="2.5"/>
    <circle cx="64" cy="96" r="2.5"/>
  </g>
</svg>
